<?xml version="1.0" encoding="UTF-8"?>
<svg xmlns="http://www.w3.org/2000/svg" xmlns:xlink="http://www.w3.org/1999/xlink" width="480pt" height="480pt" viewBox="0 0 480 480" version="1.1">
<g id="surface7972848">
<path style=" stroke:none;fill-rule:nonzero;fill:rgb(97.254902%,97.254902%,97.254902%);fill-opacity:1;" d="M 240 40 C 129.53125 40 40 129.53125 40 240 C 40 350.46875 129.53125 440 240 440 C 350.46875 440 440 350.46875 440 240 C 440 129.53125 350.46875 40 240 40 Z M 240 80 C 328.203125 80 400 151.796875 400 240 C 400 249.375 399.0625 258.59375 397.5 267.5 C 392.578125 266.40625 385.3125 265.078125 376.875 265 C 370.625 264.921875 362.8125 265.9375 356.25 266.875 C 358.515625 259.921875 360 252.265625 360 244.375 C 360 225.15625 350.625 207.265625 335.625 192.5 C 339.765625 177.109375 343.828125 150.703125 333.125 140 C 301.484375 140 283.984375 162.578125 283.125 163.75 C 273.359375 161.40625 263.28125 160 252.5 160 C 238.671875 160 225.46875 162.5 213.125 166.25 L 216.875 163.125 C 216.875 163.125 199.296875 138.75 166.875 138.75 C 155.546875 150.15625 160.703125 179.0625 165 193.75 C 149.6875 208.359375 140 225.625 140 244.375 C 140 250.9375 141.5625 257.1875 143.125 263.125 C 137.578125 262.5 117.578125 260.625 109.375 260.625 C 102.109375 260.625 90.859375 262.34375 81.875 264.375 C 80.625 256.40625 80 248.28125 80 240 C 80 151.796875 151.796875 80 240 80 Z M 109.375 265.625 C 117.265625 265.625 141.25 268.4375 144.375 268.75 C 144.765625 269.84375 145.15625 270.859375 145.625 271.875 C 137.03125 271.09375 120.390625 269.921875 109.375 271.25 C 102.03125 272.109375 92.65625 274.765625 84.375 276.875 C 83.75 274.375 82.96875 271.953125 82.5 269.375 C 91.25 267.5 102.734375 265.625 109.375 265.625 Z M 376.875 270 C 384.84375 270.078125 392.109375 271.40625 396.875 272.5 C 396.640625 273.828125 395.9375 274.921875 395.625 276.25 C 390.546875 275.078125 382.1875 273.359375 372.5 273.125 C 367.8125 273.046875 360.3125 273.28125 353.75 273.75 C 354.0625 273.125 354.140625 272.5 354.375 271.875 C 361.171875 270.9375 369.84375 269.921875 376.875 270 Z M 121.875 275.625 C 133.125 275.703125 143.671875 276.484375 148.125 276.875 C 158.59375 296.40625 179.765625 310.859375 212.5 316.875 C 204.453125 321.328125 197.265625 327.578125 191.875 335 C 187.1875 335.390625 182.265625 335.625 177.5 335.625 C 163.59375 335.625 154.921875 323.203125 147.5 312.5 C 140 301.796875 130.78125 300.625 125.625 300 C 120.390625 299.375 118.59375 302.34375 121.25 304.375 C 136.484375 316.09375 141.953125 330 148.125 342.5 C 153.671875 353.75 165.3125 360 178.125 360 L 180.625 360 C 180.234375 362.1875 180 364.21875 180 366.25 L 180 388.125 C 133.828125 369.453125 98.671875 330 85.625 281.25 C 93.828125 279.21875 103.046875 277.109375 110 276.25 C 113.203125 275.859375 117.265625 275.546875 121.875 275.625 Z M 372.5 278.125 C 381.484375 278.359375 389.453125 280.078125 394.375 281.25 C 383.359375 322.65625 356.171875 357.109375 320 378.125 L 320 366.25 C 320 349.21875 306.5625 327.34375 287.5 316.875 C 319.140625 311.09375 339.765625 297.265625 350.625 278.75 C 358.203125 278.203125 367.109375 277.96875 372.5 278.125 Z M 250 360 C 255.46875 360 260 364.53125 260 370 L 260 398.75 C 253.4375 399.609375 246.796875 400 240 400 L 240 370 C 240 364.53125 244.53125 360 250 360 Z M 210 380 C 215.46875 380 220 384.53125 220 390 L 220 398.75 C 213.28125 397.890625 206.484375 396.640625 200 395 L 200 390 C 200 384.53125 204.53125 380 210 380 Z M 290 380 C 294.84375 380 299.0625 383.515625 300 388.125 C 293.515625 390.78125 286.875 393.203125 280 395 L 280 390 C 280 384.53125 284.53125 380 290 380 Z M 290 380 "/>
</g>
</svg>
